simulation
nRows=49
nColumns=15
endheader
time  TH_x TH_y TH_z SC_y  SC_z  SC_x  AC_y  AC_z  AC_x  GH_y  GH_z  GH_yy  EL_x  PS_y
0.000000  0.000000  0.000000  0.000000  -31.466709  1.023896  7.884076  51.470676  7.645409  -8.194353  47.761940  9.635544  -16.198966  22.274170  119.801014
0.000356  0.000000  0.000000  0.000000  -31.466709  1.023896  -2.115924  50.179229  15.405952  -1.752221  47.761940  9.635544  -16.198966  22.274170  119.801014
0.000712  0.000000  0.000000  0.000000  -42.949765  -3.641122  -2.115924  44.001524  6.441099  -11.676036  52.099275  7.367085  -23.453409  30.090167  116.369877
0.001068  0.000000  0.000000  0.000000  -46.355545  3.377280  -2.115924  52.993570  31.623590  4.911418  55.077211  14.564706  -25.239516  12.833710  121.121133
0.001423  0.000000  0.000000  0.000000  -42.129336  -9.312215  -2.115924  45.293676  -7.458965  -10.152495  39.764812  7.581413  -21.705791  29.116256  111.921499
0.001779  0.000000  0.000000  0.000000  -31.970550  8.376999  -2.115924  46.922529  -3.987145  -3.621865  54.760895  11.196852  -14.840495  18.842885  129.490882
0.002135  0.000000  0.000000  0.000000  -14.787437  9.292700  -2.115924  51.079166  5.705281  7.861862  53.177687  0.221395  -15.723838  13.134123  114.877179
0.002491  0.000000  0.000000  0.000000  -37.723009  -0.226318  -2.115924  41.351102  6.198847  -10.139162  50.354190  11.577033  -21.667294  28.825532  114.909359
0.002847  0.000000  0.000000  0.000000  -48.533042  -3.758142  -2.115924  53.017756  31.135530  -2.683678  51.535903  5.334764  -20.298861  13.690113  125.249466
0.003203  0.000000  0.000000  0.000000  -38.199531  -16.472209  -2.115924  59.920249  -0.297127  -0.838007  41.971819  19.609065  -15.796866  26.609799  112.516557
0.003559  0.000000  0.000000  0.000000  -12.388616  -13.028590  -2.115924  55.476397  -7.487564  3.977405  38.814455  8.286387  -21.312524  30.447082  115.039340
0.003915  0.000000  0.000000  0.000000  -40.897293  4.566935  -2.115924  59.139479  36.347787  5.667935  40.597488  17.956090  -9.544591  26.266930  128.901786
0.004270  0.000000  0.000000  0.000000  -15.435795  -2.775923  -2.115924  45.223723  12.479590  -8.542787  41.943386  0.417073  -11.162449  24.731911  127.626193
0.004626  0.000000  0.000000  0.000000  -50.530953  5.353479  -2.115924  44.544656  21.155810  0.040305  49.030019  8.021560  -12.214105  24.949485  114.512710
0.004982  0.000000  0.000000  0.000000  -18.466067  14.340450  -2.115924  44.040808  17.777432  -3.785180  47.359847  15.740079  -17.865611  31.198783  117.291418
0.005338  0.000000  0.000000  0.000000  -13.887704  11.562142  -2.115924  51.774234  -0.721538  7.234000  45.007173  7.125367  -11.505165  21.347838  121.913895
0.005694  0.000000  0.000000  0.000000  -31.466709  1.023896  5.384076  51.233905  9.598035  -6.615257  47.761940  9.635544  -16.198966  22.274170  119.801014
0.006050  0.000000  0.000000  0.000000  -18.446913  8.760187  5.384076  44.932633  13.300820  -10.080424  45.153852  10.168609  -16.869829  16.533727  117.841986
0.006406  0.000000  0.000000  0.000000  -26.766922  -10.980910  5.384076  54.150473  -7.514340  -13.505112  53.158886  14.963314  -25.973779  17.542553  114.358934
0.006762  0.000000  0.000000  0.000000  -49.584065  -0.720449  5.384076  46.723034  -2.958134  -14.629510  46.117308  0.345723  -15.130381  27.389957  129.766567
0.007117  0.000000  0.000000  0.000000  -46.191574  7.322521  5.384076  42.862164  -8.864716  -16.353918  51.562404  3.341069  -17.473069  21.980330  125.103492
0.007473  0.000000  0.000000  0.000000  -28.346339  -6.665428  5.384076  50.308175  -4.158284  -12.542389  49.496429  2.410997  -13.029593  27.989074  123.918754
0.007829  0.000000  0.000000  0.000000  -38.851920  6.321520  5.384076  49.089960  27.636440  2.886478  56.922871  4.742874  -13.543709  16.995699  113.119852
0.008185  0.000000  0.000000  0.000000  -38.857373  10.934473  5.384076  44.483691  -11.605479  -6.439458  47.109483  4.084695  -8.736920  25.895969  113.062190
0.008541  0.000000  0.000000  0.000000  -41.646645  3.139270  5.384076  41.753124  8.649622  -12.439606  44.716504  15.677910  -13.547567  12.952905  118.087742
0.008897  0.000000  0.000000  0.000000  -36.647461  -4.881877  5.384076  57.653869  -8.653883  0.253119  52.287202  5.686694  -18.379858  21.102100  128.429258
0.009253  0.000000  0.000000  0.000000  -46.729052  1.955772  5.384076  57.954856  -0.040393  1.775931  51.932016  19.520209  -22.616579  20.612713  126.352240
0.009609  0.000000  0.000000  0.000000  -34.204057  1.252648  5.384076  56.399500  30.262642  -4.373501  54.405279  3.818965  -12.549971  26.383562  112.190165
0.009964  0.000000  0.000000  0.000000  -21.410174  -0.549148  5.384076  42.239027  5.779018  -15.728246  41.595739  4.164449  -14.310004  23.016424  116.044051
0.010320  0.000000  0.000000  0.000000  -18.281470  16.066991  5.384076  45.195072  -5.727294  -4.152277  47.969027  19.287835  -13.158244  22.392935  116.228085
0.010676  0.000000  0.000000  0.000000  -22.465221  5.388115  5.384076  56.312590  1.790518  -0.637648  51.418099  2.761462  -21.626396  15.506273  128.908696
0.011032  0.000000  0.000000  0.000000  -17.041369  13.429197  5.384076  43.547698  7.715008  -7.173147  48.199987  8.351030  -12.371035  18.026374  121.258566
0.011388  0.000000  0.000000  0.000000  -31.466709  1.023896  12.884076  51.779874  3.724598  -11.313100  47.761940  9.635544  -16.198966  22.274170  119.801014
0.011744  0.000000  0.000000  0.000000  -30.546717  13.309397  12.884076  51.139664  -0.619402  -2.051307  41.658589  1.734284  -8.988155  17.607956  120.979364
0.012100  0.000000  0.000000  0.000000  -44.353254  -0.508748  12.884076  43.258936  -2.567125  -20.483728  46.099735  -0.049942  -17.657588  14.343861  109.885156
0.012456  0.000000  0.000000  0.000000  -47.994935  20.090543  12.884076  43.569310  13.238240  -4.205237  56.952041  9.954673  -23.354347  19.543789  123.413335
0.012811  0.000000  0.000000  0.000000  -48.186726  -4.761824  12.884076  48.537060  -16.400486  -16.588796  54.053079  6.035508  -10.311905  22.453201  125.090750
0.013167  0.000000  0.000000  0.000000  -27.068316  -9.742803  12.884076  59.535287  -3.110860  -13.681419  38.899821  8.056169  -9.499944  13.923995  120.735864
0.013523  0.000000  0.000000  0.000000  -51.418632  -0.790044  12.884076  41.967459  21.177480  -16.337818  48.178193  17.488670  -21.999650  16.457041  121.029084
0.013879  0.000000  0.000000  0.000000  -24.979788  13.748104  12.884076  45.502210  -3.731090  -12.574275  52.477480  15.440021  -10.685817  17.854290  122.663279
0.014235  0.000000  0.000000  0.000000  -45.741467  19.681142  12.884076  43.801577  -16.237604  -8.709787  38.801368  3.270119  -12.495676  23.756517  111.389325
0.014591  0.000000  0.000000  0.000000  -18.393789  7.579899  12.884076  55.242218  -4.587390  -3.313802  39.102507  12.572337  -6.379150  26.527440  121.065400
0.014947  0.000000  0.000000  0.000000  -40.679628  -14.994293  12.884076  56.188389  0.163210  -20.261224  41.446933  9.717343  -9.163935  19.180646  110.656305
0.015302  0.000000  0.000000  0.000000  -30.559674  -13.438852  12.884076  59.865168  5.123022  -18.204080  50.706489  14.340478  -9.488436  22.777163  125.695525
0.015658  0.000000  0.000000  0.000000  -31.466709  1.023896  20.384076  51.842733  -2.173461  -15.948378  47.761940  9.635544  -16.198966  22.274170  119.801014
0.016014  0.000000  0.000000  0.000000  -19.084042  7.417010  20.384076  48.099740  16.477627  -18.749301  53.143306  0.162732  -19.820451  29.030941  112.145637
0.016370  0.000000  0.000000  0.000000  -18.751651  -16.217754  20.384076  59.048231  -12.403916  -16.612036  40.970136  9.266579  -13.794655  13.465991  125.426355
0.016726  0.000000  0.000000  0.000000  -47.815677  14.293605  20.384076  48.289945  -17.782795  -12.270100  55.212929  19.126204  -24.814149  14.498789  113.545773
0.017082  0.000000  0.000000  0.000000  -20.074857  -4.957820  20.384076  52.676396  -22.612291  -8.965333  40.143086  9.170062  -20.629476  28.656157  112.893163
